C:\GBW_MyPrograms\KinderuniversiteitApp\Resultaten\New_group\test5_v2.mot
version=1
nRows=16
nColumns=31
inDegrees=yes
endheader
                time	         pelvis_tilt	           pelvis_tx	           pelvis_ty	       hip_flexion_r	        knee_angle_r	       ankle_angle_r	       hip_flexion_l	        knee_angle_l	       ankle_angle_l	    lumbar_extension	          arm_flex_r	          arm_flex_l	hamstrings_r/activation	bifemsh_r/activation	glut_max_r/activation	iliopsoas_r/activation	rect_fem_r/activation	  vasti_r/activation	gastroc_r/activation	 soleus_r/activation	tib_ant_r/activation	hamstrings_l/activation	bifemsh_l/activation	glut_max_l/activation	iliopsoas_l/activation	rect_fem_l/activation	  vasti_l/activation	gastroc_l/activation	 soleus_l/activation	tib_ant_l/activation	
          0.00000000	         -7.79354189	          0.00000000	          0.69324291	         33.56054564	        -33.39248224	        -15.95880197	         23.97464344	        -36.38846230	         -7.64690976	          0.18970820	         48.83630391	         48.83630365	          0.21239276	          0.21536650	          0.53485925	          0.59333156	          0.33455960	          0.16652540	          0.53066647	          0.60780924	          0.18032937	          0.49422216	          0.36459774	          0.35987555	          0.39793236	          0.33781411	          0.30857977	          0.12363750	          0.64702238	          0.06980428	
          0.00200007	         -7.61007164	          0.03676800	          0.69388431	         29.17097877	        -31.85928754	        -14.40286385	         26.39935959	        -32.64574405	         -8.25674116	          0.24149796	         48.85540489	         48.85540470	          0.26640264	          0.27977617	          0.50434040	          0.62413010	          0.31798524	          0.15705409	          0.49554165	          0.56798091	          0.24735176	          0.53190400	          0.41588427	          0.36341913	          0.36493575	          0.30782850	          0.27804736	          0.09652142	          0.59729576	          0.09911839	
          0.00400015	         -7.65863483	          0.06355581	          0.69450208	         25.10022807	        -32.62342254	        -13.22856184	         22.86867905	        -31.42016228	         -8.61732489	          0.26988040	         48.79899331	         48.79899320	          0.23726453	          0.25930195	          0.47023162	          0.59886866	          0.36999329	          0.22822886	          0.46199997	          0.52963676	          0.27106459	          0.56189398	          0.45899574	          0.35825916	          0.35782628	          0.27951163	          0.25512916	          0.07144177	          0.60032051	          0.18195103	
          0.00600022	         -7.76657314	          0.08308069	          0.69384511	         22.31492421	        -32.65657549	        -12.65895905	         19.43059262	        -31.08089743	         -8.77038377	          0.25757198	         48.67010396	         48.67010391	          0.20980275	          0.23586825	          0.49911201	          0.57103715	          0.42008475	          0.30252841	          0.42951673	          0.49159858	          0.24170567	          0.53304026	          0.42751739	          0.34063095	          0.40145540	          0.25618905	          0.32007619	          0.05350891	          0.61477484	          0.16181932	
          0.00800029	         -7.86661840	          0.09725041	          0.69224928	         20.40089189	        -32.49852508	        -12.37144110	         16.84851957	        -30.81929464	         -8.80949147	          0.22839232	         48.51875014	         48.51875014	          0.18185562	          0.22026975	          0.52644019	          0.54266962	          0.39939463	          0.35991824	          0.39632736	          0.45342072	          0.30477362	          0.50827207	          0.46325380	          0.31832024	          0.44528324	          0.23231153	          0.32892713	          0.12866155	          0.62671410	          0.14379458	
          0.01000037	         -7.95028462	          0.10748734	          0.69036382	         19.07017519	        -32.28010719	        -12.23183911	         14.75091335	        -30.53381223	         -8.90260003	          0.19418976	         48.36553490	         48.36553497	          0.22540028	          0.20520943	          0.54927572	          0.51401680	          0.37895295	          0.40809398	          0.36399966	          0.41682873	          0.34715279	          0.48357464	          0.50025169	          0.29387255	          0.48674149	          0.20844877	          0.30088709	          0.19507480	          0.63677912	          0.12779918	
          0.01200044	         -8.01822811	          0.11485542	          0.68803855	         18.07841372	        -32.21651073	        -12.17960222	         12.82708223	        -30.23125243	         -9.15368016	          0.16001384	         48.21855709	         48.21855723	          0.27776788	          0.19100776	          0.56645041	          0.48539504	          0.35908649	          0.44474188	          0.33288370	          0.38300700	          0.31671974	          0.45518431	          0.53390732	          0.26827998	          0.52529834	          0.18502992	          0.26940423	          0.25525921	          0.64486504	          0.11372981	
          0.01400051	         -8.06876711	          0.12014739	          0.68604019	         17.36752142	        -31.92025256	        -12.11776085	         10.85615031	        -29.90153864	         -9.70336407	          0.13084153	         48.09992708	         48.09992729	          0.32735507	          0.17701208	          0.56801350	          0.45652987	          0.34002686	          0.46845943	          0.30338970	          0.35381927	          0.28535801	          0.42623582	          0.56139093	          0.24208292	          0.56104872	          0.16391950	          0.28839555	          0.30903088	          0.65124891	          0.10167976	
          0.01600059	         -8.11144909	          0.12394764	          0.68780263	         17.48943966	        -29.86549350	        -12.09371331	          7.91179334	        -30.39302690	        -10.45807586	          0.10430865	         48.01188961	         48.01188989	          0.37233849	          0.16074166	          0.57535983	          0.42720630	          0.32158199	          0.47120205	          0.27671756	          0.40814676	          0.25412340	          0.39824103	          0.53229016	          0.21678613	          0.59344562	          0.19464357	          0.33305130	          0.35572109	          0.65778968	          0.09168487	
          0.01800066	         -8.15095094	          0.12668152	          0.68889276	         17.19991069	        -28.61305934	        -12.26325136	          5.21432711	        -27.79345641	        -10.98814408	          0.08751211	         47.95190657	         47.95190693	          0.41380013	          0.14405782	          0.54907030	          0.40078762	          0.30393790	          0.44991837	          0.25036635	          0.45009872	          0.22736642	          0.44387928	          0.56388582	          0.19426821	          0.62010801	          0.16666089	          0.28949320	          0.39683750	          0.66488068	          0.07797465	
          0.02000073	         -8.16232499	          0.12865723	          0.68782440	         16.50512057	        -30.26024038	        -12.96200577	          3.14343641	        -19.62975494	        -10.72020622	          0.07898157	         47.89685329	         47.89685371	          0.45190282	          0.12170417	          0.52275296	          0.37775199	          0.28366874	          0.41925940	          0.30500846	          0.47644855	          0.20641007	          0.47609095	          0.58969805	          0.17481357	          0.64138926	          0.14121205	          0.25557537	          0.36725521	          0.62893415	          0.16085524	
          0.02200081	         -8.15244993	          0.13012116	          0.68875820	         15.67466568	        -31.86567366	        -13.68255892	          0.70169284	          9.20579543	        -10.91330746	          0.09279637	         47.90324323	         47.90324370	          0.48720286	          0.19745917	          0.49345939	          0.36462281	          0.26006950	          0.38535542	          0.35327570	          0.49983198	          0.18758138	          0.43725012	          0.59594625	          0.16054921	          0.65863366	          0.16266681	          0.30885864	          0.34171292	          0.64136506	          0.13673626	
          0.02400088	         -8.11958375	          0.13122953	          0.68541934	         15.02064171	        -32.48989364	        -13.93912023	         -0.49726136	         12.52139128	        -11.39672623	          0.11828379	         47.94809643	         47.94809688	          0.51752269	          0.26770222	          0.46227403	          0.34836084	          0.23606654	          0.35513016	          0.31867718	          0.52245882	          0.19723147	          0.40137884	          0.56974375	          0.15182293	          0.67417182	          0.14224281	          0.35402980	          0.39218756	          0.65232662	          0.11225710	
          0.02600095	         -8.09714904	          0.13207645	          0.68523749	         14.80057121	        -32.54352147	        -14.15645780	         -1.08605606	         12.56104547	        -11.79354006	          0.13043583	         47.97216917	         47.97216958	          0.54360453	          0.32971406	          0.43088199	          0.40232048	          0.21291432	          0.32417243	          0.36718412	          0.54444755	          0.17592068	          0.36913470	          0.59356214	          0.13059016	          0.68726983	          0.11846335	          0.31751305	          0.35839943	          0.61288119	          0.12625568	
          0.02800102	         -8.08817351	          0.13272888	          0.68492431	         14.44104726	        -32.81726380	        -14.36743427	         -1.02548672	         12.29655585	        -12.18286116	          0.12496634	         47.97276027	         47.97276063	          0.56504807	          0.38462786	          0.40047912	          0.44996686	          0.19016317	          0.29198634	          0.41153753	          0.56542617	          0.15521246	          0.33893376	          0.61443767	          0.10957455	          0.69884967	          0.09657019	          0.28304915	          0.32380087	          0.57661177	          0.14941162	
          0.03000110	         -8.12668461	          0.13323352	          0.68519916	         13.41192973	        -34.29586458	        -14.56898452	         -0.90778190	         12.29684667	        -12.59140930	          0.10462182	         47.95465638	         47.95465671	          0.52425337	          0.43102912	          0.37415577	          0.42763053	          0.16923857	          0.26322117	          0.45084000	          0.58545876	          0.13506455	          0.31037955	          0.63127546	          0.08894499	          0.70770298	          0.07589331	          0.25079364	          0.28930574	          0.58860353	          0.13898952	
